<svg xmlns="http://www.w3.org/2000/svg" xmlns:xlink="http://www.w3.org/1999/xlink" width="40" height="40" viewBox="0 0 40 40"><defs><path id="ixwza" d="M265 40c0-11.046 8.954-20 20-20s20 8.954 20 20-8.954 20-20 20-20-8.954-20-20z"/><path id="ixwzb" d="M277.46 39.96a1 1 0 0 1 1-1h13a1 1 0 0 1 0 2h-13a1 1 0 0 1-1-1z"/><path id="ixwzc" d="M284.96 47.46a1 1 0 0 1-1-1v-13a1 1 0 0 1 2 0v13a1 1 0 0 1-1 1z"/></defs><g><g transform="translate(-265 -20)"><use fill="#3fad89" xlink:href="#ixwza"/></g><g transform="rotate(45 176.642 -290.383)"><g><use fill="#fff" xlink:href="#ixwzb"/></g><g><use fill="#fff" xlink:href="#ixwzc"/></g></g></g></svg>