<svg xmlns="http://www.w3.org/2000/svg" xmlns:xlink="http://www.w3.org/1999/xlink" width="13" height="13" viewBox="0 0 13 13"><defs><path id="asyca" d="M145.757 101.499l-5.822-5.304a.662.662 0 0 0-.896 0l-5.821 5.304a.661.661 0 0 0-.172.732c.1.258.343.425.62.425h.93v5.315c0 .21.17.381.381.381h3.191c.21 0 .382-.17.382-.381v-3.227h1.875v3.227c0 .21.17.381.382.381h3.19c.21 0 .382-.17.382-.381v-5.315h.93c.277 0 .52-.167.62-.425a.661.661 0 0 0-.172-.732z"/><path id="asycb" d="M144.282 96.78h-2.562l2.944 2.677v-2.295c0-.211-.17-.382-.382-.382z"/></defs><g><g opacity=".2" transform="translate(-133 -96)"><use xlink:href="#asyca"/></g><g opacity=".2" transform="translate(-133 -96)"><use xlink:href="#asycb"/></g></g></svg>