<svg xmlns="http://www.w3.org/2000/svg" xmlns:xlink="http://www.w3.org/1999/xlink" width="32" height="32" viewBox="0 0 32 32"><defs><path id="qwcda" d="M1248.063 6350.078c-.646 0-1.17-.525-1.17-1.17 0-.645.524-1.17 1.17-1.17.645 0 1.17.525 1.17 1.17 0 .645-.525 1.17-1.17 1.17zm-5.109 8.856a4.945 4.945 0 0 1-4.939-4.94 4.945 4.945 0 0 1 4.94-4.939 4.945 4.945 0 0 1 4.939 4.94 4.945 4.945 0 0 1-4.94 4.939zm4.761-12.444h-9.512a2.757 2.757 0 0 0-2.753 2.753v9.512a2.757 2.757 0 0 0 2.753 2.754h9.512a2.757 2.757 0 0 0 2.754-2.754v-9.512a2.757 2.757 0 0 0-2.754-2.753z"/><path id="qwcdb" d="M1242.955 6351.15a2.859 2.859 0 0 0-2.855 2.854 2.859 2.859 0 0 0 2.855 2.856 2.858 2.858 0 0 0 2.855-2.856 2.858 2.858 0 0 0-2.855-2.854z"/><path id="qwcdc" d="M1252.556 6358.756a4.848 4.848 0 0 1-4.843 4.843h-9.512a4.848 4.848 0 0 1-4.843-4.843v-9.512a4.848 4.848 0 0 1 4.843-4.843h9.512a4.848 4.848 0 0 1 4.843 4.843zm-9.599-20.756c-8.812 0-15.957 7.145-15.957 15.957 0 8.812 7.145 15.957 15.957 15.957 8.812 0 15.957-7.145 15.957-15.957 0-8.812-7.145-15.957-15.957-15.957z"/></defs><g><g transform="translate(-1227 -6338)"><g><use fill="#f74c64" xlink:href="#qwcda"/></g><g><use fill="#f74c64" xlink:href="#qwcdb"/></g><g><use fill="#f74c64" xlink:href="#qwcdc"/></g></g></g></svg>