<svg xmlns="http://www.w3.org/2000/svg" xmlns:xlink="http://www.w3.org/1999/xlink" width="56" height="43" viewBox="0 0 56 43"><defs><path id="to56a" d="M1068.646 552.692c-.43-.43-.646-1.077-.646-1.507 0-.431.215-1.077.646-1.508l3.016-3.015c.861-.862 2.153-.862 3.015 0l.215.215 11.846 12.708c.431.43 1.077.43 1.508 0l28.862-29.939h.215c.862-.861 2.154-.861 3.015 0l3.016 3.016c.861.861.861 2.153 0 3.015l-34.462 35.754c-.43.43-.861.646-1.507.646-.647 0-1.077-.215-1.508-.646l-16.8-18.093z"/></defs><g><g transform="translate(-1068 -529)"><use fill="#3fad89" xlink:href="#to56a"/></g></g></svg>