<svg xmlns="http://www.w3.org/2000/svg" xmlns:xlink="http://www.w3.org/1999/xlink" width="40" height="16"><defs><path id="a" d="M1304.258 7058.205v-4.296h1.233c.17 0 .316-.062.435-.182s.181-.26.181-.43a.594.594 0 0 0-.181-.432.602.602 0 0 0-.435-.182h-1.233v-3.07a.594.594 0 0 0-.181-.431.582.582 0 0 0-.43-.182.59.59 0 0 0-.43.182.586.586 0 0 0-.18.431v3.075h-.612a.59.59 0 0 0-.43.182.586.586 0 0 0-.181.431c0 .167.062.312.181.431.12.12.26.182.43.182h.611v4.296c0 2.047 1.02 3.07 3.06 3.07a.59.59 0 0 0 .43-.181c.12-.12.182-.26.182-.431a.594.594 0 0 0-.182-.432.582.582 0 0 0-.43-.181c-1.222 0-1.838-.619-1.838-1.85zm-11.044-4.909v7.372c0 .166.062.311.181.43a.59.59 0 0 0 .43.183c.165 0 .31-.063.428-.182.12-.12.181-.26.181-.431v-3.99c0-.764.269-1.413.806-1.953a2.639 2.639 0 0 1 1.943-.81c.76 0 1.406.264 1.944.804.537.54.806 1.19.806 1.954v3.99c0 .166.062.311.18.43a.59.59 0 0 0 .43.182.59.59 0 0 0 .429-.181.59.59 0 0 0 .18-.432v-3.99c0-1.1-.387-2.04-1.162-2.82-.776-.78-1.71-1.169-2.807-1.169-1.07 0-1.984.369-2.749 1.112v-.499a.595.595 0 0 0-.18-.431.589.589 0 0 0-.43-.182.589.589 0 0 0-.429.182.586.586 0 0 0-.18.431zm-3.054 7.376c0 .166.062.312.181.431a.58.58 0 0 0 .429.182c.165 0 .31-.062.429-.182s.18-.26.18-.431v-7.375a.596.596 0 0 0-.18-.432.58.58 0 0 0-.429-.182.588.588 0 0 0-.429.182.587.587 0 0 0-.18.432zm1.139-10.37a.732.732 0 0 0-.534-.227.732.732 0 0 0-.534.227.74.74 0 0 0-.226.537.74.74 0 0 0 .226.537c.149.15.329.227.534.227a.732.732 0 0 0 .534-.227.74.74 0 0 0 .226-.537.731.731 0 0 0-.226-.537zm18.133-.533a.75.75 0 0 1 .227.55.76.76 0 0 1-.227.551.743.743 0 0 1-.548.229.751.751 0 0 1-.548-.229.75.75 0 0 1-.227-.55c0-.214.077-.4.227-.551.15-.15.33-.229.548-.229.217 0 .398.073.548.229zm.217-.222a1.049 1.049 0 0 0-.77-.324c-.3 0-.559.11-.77.324a1.07 1.07 0 0 0-.32.778c0 .302.108.563.32.777.211.214.47.324.77.324.3 0 .558-.11.77-.324a1.07 1.07 0 0 0 .32-.777 1.05 1.05 0 0 0-.32-.778zm-25.597 4.367a2.92 2.92 0 0 1 2.16.899c.594.597.894 1.32.894 2.171 0 .847-.3 1.574-.894 2.172a2.934 2.934 0 0 1-2.16.899 2.942 2.942 0 0 1-2.16-.9 2.965 2.965 0 0 1-.895-2.17c0-.847.3-1.575.894-2.172a2.934 2.934 0 0 1 2.16-.899zm4.274 3.07c0-1.19-.419-2.202-1.251-3.044-.832-.836-1.84-1.257-3.023-1.257-1.184 0-2.192.42-3.024 1.262-.832.837-1.25 1.85-1.25 3.04 0 1.184.413 2.197 1.25 3.038.832.837 1.84 1.258 3.024 1.258 1.178 0 2.186-.416 3.023-1.258.832-.836 1.25-1.849 1.25-3.039zm-16.212-2.171a2.934 2.934 0 0 1 2.16-.899c.847 0 1.566.296 2.16.899.594.597.894 1.32.894 2.171 0 .847-.3 1.574-.894 2.172a2.934 2.934 0 0 1-2.16.899 2.942 2.942 0 0 1-2.16-.9 2.965 2.965 0 0 1-.894-2.17c0-.853.3-1.575.894-2.172zm-.894 5.174l.03.031c.833.837 1.84 1.257 3.024 1.257 1.178 0 2.186-.415 3.023-1.257.832-.836 1.25-1.85 1.25-3.039 0-1.184-.413-2.197-1.25-3.039-.832-.836-1.84-1.257-3.023-1.257-1.178 0-2.186.42-3.023 1.262-.832.837-1.251 1.85-1.251 3.04v7.366c0 .166.062.311.18.43a.59.59 0 0 0 .43.183c.165 0 .31-.063.429-.182.119-.12.18-.26.18-.431z"/></defs><use fill="#fff" xlink:href="#a" transform="translate(-1270 -7049)"/></svg>