<svg xmlns="http://www.w3.org/2000/svg" xmlns:xlink="http://www.w3.org/1999/xlink" width="40" height="40"><defs><path id="a" d="M265 40c0-11.046 8.954-20 20-20s20 8.954 20 20-8.954 20-20 20-20-8.954-20-20z"/><path id="b" d="M277.46 39.96a1 1 0 0 1 1-1h13a1 1 0 0 1 0 2h-13a1 1 0 0 1-1-1z"/><path id="c" d="M284.96 47.46a1 1 0 0 1-1-1v-13a1 1 0 0 1 2 0v13a1 1 0 0 1-1 1z"/></defs><use fill="#3fad89" xlink:href="#a" transform="translate(-265 -20)"/><use fill="#fff" xlink:href="#b" transform="rotate(45 176.642 -290.383)"/><use fill="#fff" xlink:href="#c" transform="rotate(45 176.642 -290.383)"/></svg>