<svg xmlns="http://www.w3.org/2000/svg" xmlns:xlink="http://www.w3.org/1999/xlink" width="32" height="32"><defs><path id="a" d="M1180 6353.885c0-8.773 7.112-15.885 15.885-15.885s15.885 7.112 15.885 15.885-7.112 15.885-15.885 15.885-15.885-7.112-15.885-15.885z"/><path id="b" d="M1205.618 6349.42a7.576 7.576 0 0 1-2.18.598 3.808 3.808 0 0 0 1.67-2.1 7.602 7.602 0 0 1-2.412.92 3.798 3.798 0 0 0-6.47 3.464 10.78 10.78 0 0 1-7.828-3.967 3.797 3.797 0 0 0 1.175 5.07 3.77 3.77 0 0 1-1.72-.476v.048a3.8 3.8 0 0 0 3.046 3.723 3.784 3.784 0 0 1-1.714.066 3.801 3.801 0 0 0 3.547 2.637 7.619 7.619 0 0 1-5.622 1.572 10.74 10.74 0 0 0 5.82 1.706c6.985 0 10.804-5.786 10.804-10.804 0-.164-.003-.328-.01-.491a7.7 7.7 0 0 0 1.894-1.965z"/></defs><use fill="#55acee" xlink:href="#a" transform="translate(-1180 -6338)"/><use fill="#f1f2f2" xlink:href="#b" transform="translate(-1180 -6338)"/></svg>